<svg xmlns="http://www.w3.org/2000/svg" width="512" height="512" viewBox="0 0 512 512" fill="none">
  <defs>
    <linearGradient id="bg" x1="86" y1="64" x2="426" y2="448" gradientUnits="userSpaceOnUse">
      <stop offset="0" stop-color="#10A589"/>
      <stop offset="1" stop-color="#0B705D"/>
    </linearGradient>
    <linearGradient id="leaf" x1="300" y1="118" x2="406" y2="228" gradientUnits="userSpaceOnUse">
      <stop offset="0" stop-color="#E5C06B"/>
      <stop offset="1" stop-color="#C99A37"/>
    </linearGradient>
    <filter id="shadow" x="38" y="38" width="436" height="436" filterUnits="userSpaceOnUse" color-interpolation-filters="sRGB">
      <feFlood flood-opacity="0" result="BackgroundImageFix"/>
      <feColorMatrix in="SourceAlpha" type="matrix" values="0 0 0 0 0 0 0 0 0 0 0 0 0 0 0 0 0 0 127 0" result="hardAlpha"/>
      <feOffset dy="10"/>
      <feGaussianBlur stdDeviation="12"/>
      <feComposite in2="hardAlpha" operator="out"/>
      <feColorMatrix type="matrix" values="0 0 0 0 0.04 0 0 0 0 0.16 0 0 0 0 0.14 0 0 0 0.32 0"/>
      <feBlend mode="normal" in2="BackgroundImageFix" result="effect1_dropShadow_1"/>
      <feBlend mode="normal" in="SourceGraphic" in2="effect1_dropShadow_1" result="shape"/>
    </filter>
  </defs>

  <g filter="url(#shadow)">
    <rect x="62" y="52" width="388" height="388" rx="108" fill="url(#bg)"/>
    <rect x="65" y="55" width="382" height="382" rx="105" stroke="#E5C06B" stroke-opacity="0.45" stroke-width="6"/>
    <path d="M145 326V166L252 286V166H307V326L200 206V326H145Z" fill="#F8F4EA"/>
    <path d="M325.7 121.6C354.7 123.8 381.5 140.2 396.1 165.4C386.6 170.8 377.7 178.8 370.9 189.3C357.2 210.2 354.2 234.7 360.7 256.7C334.3 248.4 311.9 229.4 301 202.1C288.4 170.3 298.8 134.7 325.7 121.6Z" fill="url(#leaf)"/>
    <path d="M311 218.2C329.2 212.4 347.2 207 365 198.6" stroke="#F5D79A" stroke-width="8" stroke-linecap="round"/>
  </g>
</svg>
